<svg version="1.1" id="Layer_1" xmlns="http://www.w3.org/2000/svg" xmlns:xlink="http://www.w3.org/1999/xlink" x="0px" y="0px"
	 width="100%" viewBox="0 0 128 128" enable-background="new 0 0 128 128" xml:space="preserve">
<path fill="#141818" opacity="1.000000" stroke="none" 
	d="
M74.000000,129.000000 
	C49.333332,129.000000 25.166666,129.000000 1.000000,129.000000 
	C1.000000,86.333336 1.000000,43.666668 1.000000,1.000000 
	C43.666668,1.000000 86.333336,1.000000 129.000000,1.000000 
	C129.000000,43.666668 129.000000,86.333336 129.000000,129.000000 
	C110.833336,129.000000 92.666664,129.000000 74.000000,129.000000 
M73.290298,82.087212 
	C69.012573,82.747803 64.660065,83.106750 60.475716,84.144028 
	C55.034000,85.493011 49.305111,86.599686 44.454628,89.212105 
	C36.299156,93.604561 36.250820,101.592758 44.420101,105.826439 
	C58.188278,112.961723 72.418381,112.775635 85.984741,105.164284 
	C93.097435,101.173759 92.827217,94.130470 85.982445,89.090088 
	C84.198975,90.057259 82.360649,91.054176 80.388840,92.123482 
	C85.798378,96.815765 85.296532,100.171646 78.854782,102.015015 
	C69.546539,104.678650 60.069733,104.758369 50.799782,101.787163 
	C48.867260,101.167755 47.416363,99.045731 45.743511,97.616173 
	C47.448063,96.194107 48.951035,94.005058 50.895050,93.494125 
	C56.669819,91.976379 62.673290,91.346695 68.483162,89.939613 
	C74.254570,88.541847 80.302719,87.410202 85.506607,84.748497 
	C93.574562,80.621880 94.065689,72.707718 87.447441,66.315689 
	C85.201035,67.317558 82.937500,68.327072 81.230293,69.088470 
	C82.547272,71.218872 85.388481,74.029633 84.817162,75.275475 
	C83.744186,77.615257 80.809677,79.218323 78.426971,80.790932 
	C77.245461,81.570747 75.570557,81.603012 73.290298,82.087212 
M39.311413,49.172604 
	C36.626312,55.443058 37.207924,58.480091 41.987061,62.898319 
	C44.093670,61.719631 46.221542,60.529045 48.374466,59.324444 
	C43.061371,55.137753 43.436787,51.839684 49.897636,49.234161 
	C53.717869,47.693550 57.871994,46.955898 61.903522,45.969795 
	C68.834175,44.274563 76.046410,43.326786 82.616188,40.735878 
	C85.746300,39.501465 88.753197,35.572742 89.873764,32.216118 
	C91.336395,27.834829 87.573143,24.687410 83.898453,22.941816 
	C70.104721,16.389378 56.120697,16.395033 42.667503,23.654852 
	C35.202530,27.683214 35.297001,34.835079 42.276073,40.064632 
	C44.075443,39.178257 45.930668,38.264366 47.883289,37.302498 
	C42.280037,31.790586 43.066780,28.653442 50.580322,26.757380 
	C59.782413,24.435211 69.077560,24.335556 78.153038,27.399439 
	C79.984528,28.017748 81.382149,29.921230 82.979797,31.232193 
	C81.384811,32.723667 80.014908,35.048695 78.152939,35.551502 
	C72.394829,37.106411 66.481163,38.187538 60.568645,39.043217 
	C52.654476,40.188583 45.249451,42.189606 39.311413,49.172604 
M47.991405,64.372223 
	C46.384956,65.234505 44.677315,65.951004 43.189274,66.983871 
	C36.119282,71.891266 35.872410,79.685394 42.604431,85.260979 
	C44.678665,84.030411 46.771698,82.788696 48.255795,81.908241 
	C46.875473,79.995026 44.323635,77.959785 44.619640,76.503342 
	C45.026104,74.503403 47.360126,72.599983 49.298843,71.294983 
	C51.019894,70.136513 53.286510,69.639000 55.386261,69.223053 
	C60.107841,68.287750 64.986923,67.981483 69.596291,66.687057 
	C75.590164,65.003838 81.901703,63.466927 87.135040,60.307537 
	C93.804329,56.281265 93.537628,49.199917 87.507050,43.511951 
	C85.564697,44.512310 83.574135,45.537495 81.523499,46.593620 
	C86.772758,52.065208 86.030846,54.957188 78.823639,57.522282 
	C76.799973,58.242523 74.680626,58.730507 72.573120,59.172100 
	C64.622742,60.837994 56.659168,62.440910 47.991405,64.372223 
M59.774109,78.717270 
	C66.265793,78.783882 72.730003,78.710304 79.049286,75.389244 
	C70.864708,70.398140 55.207439,71.127876 49.922894,76.972260 
	C53.179306,77.597748 56.030483,78.145401 59.774109,78.717270 
M70.954407,49.489918 
	C63.619190,48.685246 56.813049,50.024132 50.670898,54.222317 
	C60.336216,56.953793 69.602173,56.079575 78.662170,52.871456 
	C78.696266,52.360195 78.730362,51.848934 78.764465,51.337677 
	C76.441589,50.768879 74.118721,50.200077 70.954407,49.489918 
M52.031071,31.143608 
	C52.087936,31.750433 51.993015,32.821503 52.223633,32.896904 
	C60.156288,35.490509 67.976936,35.313473 77.100655,31.749279 
	C68.101707,28.350233 60.464882,28.407825 52.031071,31.143608 
M72.468269,99.153084 
	C74.032387,98.626221 75.596504,98.099350 77.838882,97.344017 
	C69.550507,93.382248 57.807545,93.803810 52.945950,97.881058 
	C59.112942,100.439835 65.327385,100.433380 72.468269,99.153084 
z"/>
<path fill="#F2F2F2" opacity="1.000000" stroke="none" 
	d="
M73.704582,82.030342 
	C75.570557,81.603012 77.245461,81.570747 78.426971,80.790932 
	C80.809677,79.218323 83.744186,77.615257 84.817162,75.275475 
	C85.388481,74.029633 82.547272,71.218872 81.230293,69.088470 
	C82.937500,68.327072 85.201035,67.317558 87.447441,66.315689 
	C94.065689,72.707718 93.574562,80.621880 85.506607,84.748497 
	C80.302719,87.410202 74.254570,88.541847 68.483162,89.939613 
	C62.673290,91.346695 56.669819,91.976379 50.895050,93.494125 
	C48.951035,94.005058 47.448063,96.194107 45.743511,97.616173 
	C47.416363,99.045731 48.867260,101.167755 50.799782,101.787163 
	C60.069733,104.758369 69.546539,104.678650 78.854782,102.015015 
	C85.296532,100.171646 85.798378,96.815765 80.388840,92.123482 
	C82.360649,91.054176 84.198975,90.057259 85.982445,89.090088 
	C92.827217,94.130470 93.097435,101.173759 85.984741,105.164284 
	C72.418381,112.775635 58.188278,112.961723 44.420101,105.826439 
	C36.250820,101.592758 36.299156,93.604561 44.454628,89.212105 
	C49.305111,86.599686 55.034000,85.493011 60.475716,84.144028 
	C64.660065,83.106750 69.012573,82.747803 73.704582,82.030342 
z"/>
<path fill="#F3F3F3" opacity="1.000000" stroke="none" 
	d="
M39.550011,48.871147 
	C45.249451,42.189606 52.654476,40.188583 60.568645,39.043217 
	C66.481163,38.187538 72.394829,37.106411 78.152939,35.551502 
	C80.014908,35.048695 81.384811,32.723667 82.979797,31.232193 
	C81.382149,29.921230 79.984528,28.017748 78.153038,27.399439 
	C69.077560,24.335556 59.782413,24.435211 50.580322,26.757380 
	C43.066780,28.653442 42.280037,31.790586 47.883289,37.302498 
	C45.930668,38.264366 44.075443,39.178257 42.276073,40.064632 
	C35.297001,34.835079 35.202530,27.683214 42.667503,23.654852 
	C56.120697,16.395033 70.104721,16.389378 83.898453,22.941816 
	C87.573143,24.687410 91.336395,27.834829 89.873764,32.216118 
	C88.753197,35.572742 85.746300,39.501465 82.616188,40.735878 
	C76.046410,43.326786 68.834175,44.274563 61.903522,45.969795 
	C57.871994,46.955898 53.717869,47.693550 49.897636,49.234161 
	C43.436787,51.839684 43.061371,55.137753 48.374466,59.324444 
	C46.221542,60.529045 44.093670,61.719631 41.987061,62.898319 
	C37.207924,58.480091 36.626312,55.443058 39.550011,48.871147 
z"/>
<path fill="#F2F3F3" opacity="1.000000" stroke="none" 
	d="
M48.345970,64.219810 
	C56.659168,62.440910 64.622742,60.837994 72.573120,59.172100 
	C74.680626,58.730507 76.799973,58.242523 78.823639,57.522282 
	C86.030846,54.957188 86.772758,52.065208 81.523499,46.593620 
	C83.574135,45.537495 85.564697,44.512310 87.507050,43.511951 
	C93.537628,49.199917 93.804329,56.281265 87.135040,60.307537 
	C81.901703,63.466927 75.590164,65.003838 69.596291,66.687057 
	C64.986923,67.981483 60.107841,68.287750 55.386261,69.223053 
	C53.286510,69.639000 51.019894,70.136513 49.298843,71.294983 
	C47.360126,72.599983 45.026104,74.503403 44.619640,76.503342 
	C44.323635,77.959785 46.875473,79.995026 48.255795,81.908241 
	C46.771698,82.788696 44.678665,84.030411 42.604431,85.260979 
	C35.872410,79.685394 36.119282,71.891266 43.189274,66.983871 
	C44.677315,65.951004 46.384956,65.234505 48.345970,64.219810 
z"/>
<path fill="#E9EAEA" opacity="1.000000" stroke="none" 
	d="
M59.327885,78.705162 
	C56.030483,78.145401 53.179306,77.597748 49.922894,76.972260 
	C55.207439,71.127876 70.864708,70.398140 79.049286,75.389244 
	C72.730003,78.710304 66.265793,78.783882 59.327885,78.705162 
z"/>
<path fill="#ECECEC" opacity="1.000000" stroke="none" 
	d="
M71.375122,49.560600 
	C74.118721,50.200077 76.441589,50.768879 78.764465,51.337677 
	C78.730362,51.848934 78.696266,52.360195 78.662170,52.871456 
	C69.602173,56.079575 60.336216,56.953793 50.670898,54.222317 
	C56.813049,50.024132 63.619190,48.685246 71.375122,49.560600 
z"/>
<path fill="#E7E7E7" opacity="1.000000" stroke="none" 
	d="
M52.384651,30.999594 
	C60.464882,28.407825 68.101707,28.350233 77.100655,31.749279 
	C67.976936,35.313473 60.156288,35.490509 52.223633,32.896904 
	C51.993015,32.821503 52.087936,31.750433 52.384651,30.999594 
z"/>
<path fill="#EAEBEB" opacity="1.000000" stroke="none" 
	d="
M72.052803,99.235809 
	C65.327385,100.433380 59.112942,100.439835 52.945950,97.881058 
	C57.807545,93.803810 69.550507,93.382248 77.838882,97.344017 
	C75.596504,98.099350 74.032387,98.626221 72.052803,99.235809 
z"/>
</svg>